<?xml version="1.0" encoding="utf-8"?>
<!-- Generator: Adobe Illustrator 16.0.0, SVG Export Plug-In . SVG Version: 6.00 Build 0)  -->
<!DOCTYPE svg PUBLIC "-//W3C//DTD SVG 1.1//EN" "http://www.w3.org/Graphics/SVG/1.1/DTD/svg11.dtd">
<svg version="1.1" id="图层_1" xmlns="http://www.w3.org/2000/svg" xmlns:xlink="http://www.w3.org/1999/xlink" x="0px" y="0px"
	 width="600px" height="600px" viewBox="0 0 600 600" enable-background="new 0 0 600 600" xml:space="preserve">
<g>
	<defs>
		<rect id="SVGID_1_" x="-100" y="-100" width="800" height="800"/>
	</defs>
	<clipPath id="SVGID_2_">
		<use xlink:href="#SVGID_1_"  overflow="visible"/>
	</clipPath>
	<path display="none" clip-path="url(#SVGID_2_)" fill="#201D1E" d="M157.09,195.56v286.995c0,0,2.188,26.01-29.144,26.01v5.013
		h51.39c0,0,34.08-0.781,34.08-30.396V195.56H157.09z"/>
	<path display="none" clip-path="url(#SVGID_2_)" fill="#201D1E" d="M130.138,250.088H47.524v180.504H25.02v27.576h84.748
		c0,0,30.082,4.237,43.873-27.893h-45.437V276.162c0,0-2.448-22.284,22.275-22.284L130.138,250.088z"/>
	<path display="none" clip-path="url(#SVGID_2_)" fill="#201D1E" d="M342.74,198.381v-86.389c0,0,0.33-22.285,30.969-22.285v-3.789
		H261.305v112.463H342.74z"/>
	<path display="none" clip-path="url(#SVGID_2_)" fill="#201D1E" d="M25.034,306.319h130.799v-2.567c0,0-20.365-3.209-20.365-21.7
		h-4.39c0,0-0.312,21.465-21.465,21.465H25.034V306.319z"/>
	<path display="none" clip-path="url(#SVGID_2_)" fill="#201D1E" d="M215.924,513.604H576.47v-2.566c0,0-20.37-3.21-20.37-21.7
		h-4.39c0,0-0.312,21.464-21.465,21.464H215.924V513.604z"/>
	<path display="none" clip-path="url(#SVGID_2_)" fill="#201D1E" d="M315.043,143.199h131.265v-2.567c0,0-20.37-3.209-20.37-21.7
		h-4.384c0,0-0.317,21.466-21.47,21.466h-85.041V143.199z"/>
	<path display="none" clip-path="url(#SVGID_2_)" fill="#201D1E" d="M208.225,198.535h318.223v-2.567
		c0,0-20.372-3.209-20.372-21.701h-4.383c0,0-0.316,21.465-21.47,21.465H208.225V198.535z"/>
	<path display="none" clip-path="url(#SVGID_2_)" fill="#201D1E" d="M238.488,278.218h236.586v-2.57c0,0-20.367-3.21-20.367-21.701
		h-4.385c0,0-0.316,21.465-21.468,21.465H238.488V278.218z"/>
	<path display="none" clip-path="url(#SVGID_2_)" fill="#201D1E" d="M261.305,307.748c0,25.843,24.619,48.417,54.477,48.417h188.295
		v-15.277c0-7.536,10.044-15.278,22.448-15.278v-3.524H344.187c-14.892,0-26.665-5.858-26.665-15.472v-59.758
		c0,0-0.712-21.795,29.259-21.795v-3.984h-85.476v88.316V307.748z"/>
	<path display="none" clip-path="url(#SVGID_2_)" fill="#201D1E" d="M211.926,411.789h83.164v75.647c0,0-0.551,23.816,20.057,23.816
		v2.351h-63.852c0,0-14.961,0.315-14.961-25.537v-50.562c0,0,1.174-22.659-24.408-22.659V411.789z"/>
	<path display="none" clip-path="url(#SVGID_2_)" fill="#201D1E" d="M553.903,411.867H475.1v75.569c0,0,0.548,23.816-20.054,23.816
		v2.351h60.27c0,0,14.967,0.315,14.967-25.537v-50.481c0,0-1.959-22.658,23.621-22.658V411.867z"/>
	<path display="none" clip-path="url(#SVGID_2_)" fill="#201D1E" d="M486.385,378.593h-90.09v132.208h56.386v-95.074
		c0,0-0.926-32.903,33.704-32.903V378.593z"/>
	<rect x="317.544" y="378.593" display="none" clip-path="url(#SVGID_2_)" fill="#201D1E" width="56.254" height="133.759"/>
	<path display="none" clip-path="url(#SVGID_2_)" fill="#C4AF97" d="M157.094,195.642v286.92c0,0,2.188,26.004-29.136,26.004v5.011
		h51.376c0,0,34.073-0.781,34.073-30.388V195.642H157.094z"/>
	<path display="none" clip-path="url(#SVGID_2_)" fill="#C0986B" d="M157.094,195.642v286.92c0,0,2.188,26.004-29.136,26.004v5.011
		h51.376c0,0,34.073-0.781,34.073-30.388V195.642H157.094z"/>
	<path display="none" clip-path="url(#SVGID_2_)" fill="#5F391A" d="M130.128,250.156H47.535v180.458H25.037v27.569h84.726
		c0,0,30.074,4.236,43.862-27.886h-45.426V276.222c0,0-2.446-22.278,22.269-22.278L130.128,250.156z"/>
	<path display="none" clip-path="url(#SVGID_2_)" fill="#402210" d="M130.128,250.156H47.535v180.458H25.037v27.569h84.726
		c0,0,30.074,4.236,43.862-27.886h-45.426V276.222c0,0-2.446-22.278,22.269-22.278L130.128,250.156z"/>
	<path display="none" clip-path="url(#SVGID_2_)" fill="#B8292C" d="M342.777,198.462v-86.367c0,0,0.33-22.279,30.961-22.279v-3.789
		H261.363v112.435H342.777z"/>
	<path display="none" clip-path="url(#SVGID_2_)" fill="#E45B28" d="M342.777,198.462v-86.367c0,0,0.33-22.279,30.961-22.279v-3.789
		H261.363v112.435H342.777z"/>
	<path display="none" clip-path="url(#SVGID_2_)" fill="#EC8F27" d="M25.051,306.373h130.765v-2.566c0,0-20.36-3.209-20.36-21.695
		h-4.387c0,0-0.313,21.459-21.46,21.459H25.051V306.373z"/>
	<path display="none" clip-path="url(#SVGID_2_)" fill="#CFD633" d="M216.029,513.604H576.48v-2.565c0,0-20.364-3.21-20.364-21.695
		h-4.388c0,0-0.313,21.459-21.46,21.459H216.029V513.604z"/>
	<path display="none" clip-path="url(#SVGID_2_)" fill="#87BC44" d="M208.33,198.616h318.142v-2.566c0,0-20.366-3.209-20.366-21.695
		h-4.383c0,0-0.315,21.459-21.464,21.459H208.33V198.616z"/>
	<path display="none" clip-path="url(#SVGID_2_)" fill="#79361E" d="M315.06,143.295h131.231v-2.566c0,0-20.365-3.209-20.365-21.695
		h-4.383c0,0-0.317,21.46-21.463,21.46H315.06V143.295z"/>
	<path display="none" clip-path="url(#SVGID_2_)" fill="#964B94" d="M208.33,198.616h318.142v-2.566c0,0-20.366-3.209-20.366-21.695
		h-4.383c0,0-0.315,21.459-21.464,21.459H208.33V198.616z"/>
	<path display="none" clip-path="url(#SVGID_2_)" fill="#65BFC6" d="M238.519,278.279h236.525v-2.57c0,0-20.362-3.209-20.362-21.695
		h-4.384c0,0-0.315,21.459-21.462,21.459H238.519V278.279z"/>
	<path display="none" clip-path="url(#SVGID_2_)" fill="#989897" d="M238.519,278.279h236.525v-2.57c0,0-20.362-3.209-20.362-21.695
		h-4.384c0,0-0.315,21.459-21.462,21.459H238.519V278.279z"/>
	<path display="none" clip-path="url(#SVGID_2_)" fill="#896138" d="M315.802,355.985h188.245v-15.272
		c0-7.535,10.042-15.274,22.443-15.274v-3.524H344.199c-14.888,0-26.658-5.855-26.658-15.467V254.86h-56.202v52.721
		C261.339,333.417,285.951,355.985,315.802,355.985"/>
	<path display="none" clip-path="url(#SVGID_2_)" fill="#534741" d="M315.802,355.985h188.245v-15.272
		c0-7.535,10.042-15.274,22.443-15.274v-3.524H344.199c-14.888,0-26.658-5.855-26.658-15.467V254.86h-56.202v52.721
		C261.339,333.417,285.951,355.985,315.802,355.985"/>
	<path display="none" clip-path="url(#SVGID_2_)" fill="#181818" d="M317.542,306.667v-59.743c0,0-0.713-21.789,29.25-21.789v-3.984
		h-85.453v86.65c0,0.724,0.026,1.443,0.063,2.161h56.638C317.716,308.919,317.542,307.821,317.542,306.667"/>
	<path display="none" clip-path="url(#SVGID_2_)" fill="#026636" d="M261.339,307.801c0,25.836,24.612,48.404,54.463,48.404h188.245
		v-15.272c0-7.535,10.042-15.274,22.443-15.274v-3.524H344.199c-14.888,0-26.658-5.854-26.658-15.467v-59.742
		c0,0-0.712-21.79,29.251-21.79v-3.983h-85.453v88.294V307.801z"/>
	<path display="none" clip-path="url(#SVGID_2_)" fill="#E5E5E4" d="M261.339,307.801c0,25.836,24.612,48.404,54.463,48.404h188.245
		v-15.272c0-7.535,10.042-15.274,22.443-15.274v-3.524H344.199c-14.888,0-26.658-5.854-26.658-15.467v-59.742
		c0,0-0.712-21.79,29.251-21.79v-3.983h-85.453v88.294V307.801z"/>
	<path display="none" clip-path="url(#SVGID_2_)" fill="#C0986B" d="M212.082,411.815h83.143v75.628c0,0-0.551,23.81,20.051,23.81
		v2.351h-63.836c0,0-14.957,0.315-14.957-25.53v-50.549c0,0,1.175-22.653-24.4-22.653V411.815z"/>
	<path display="none" clip-path="url(#SVGID_2_)" fill="#309FD1" d="M553.891,411.894h-78.783v75.55c0,0,0.548,23.811-20.049,23.811
		v2.35h60.255c0,0,14.962,0.315,14.962-25.53v-50.469c0,0-1.958-22.652,23.615-22.652V411.894z"/>
	<path clip-path="url(#SVGID_2_)" fill="#136CAD" d="M486.361,378.627h-90.066v132.175h56.371v-95.05
		c0,0-0.926-32.895,33.695-32.895V378.627z"/>
	<rect x="317.551" y="378.627" display="none" clip-path="url(#SVGID_2_)" fill="#A37B53" width="56.24" height="133.725"/>
</g>
</svg>
